# xmcd
#
# Track frame offsets:
#	150
#	18376
#	38254
#	55280
#	74868
#	91146
#	106899
#	125149
#	145018
#	162046
#	181631
#	197938
#
# Disc length: 2849 seconds
#
# Revision: 1
# Processed by: cddbd v1.5.2PL0 Copyright (c) Steve Scherf et al.
# Submitted via: audiograbber 1.83.01
#
DISCID=9e0b1f0c
DTITLE=CHARTBUSTER - 315
DYEAR=1900
DGENRE=
TTITLE0=Designated Drinker (Vocals)
TTITLE1=Young  (Vocals)
TTITLE2=What If She's An Angel  (Vocals)
TTITLE3=That's Just Jessie  (Vocals)
TTITLE4=Heather's Wall  (Vocals)
TTITLE5=I'm Gonna Miss Her  (Vocals)
TTITLE6=Designated Drinker
TTITLE7=Young
TTITLE8=What If She's An Angel
TTITLE9=That's Just Jessie
TTITLE10=Heather's Wall
TTITLE11=I'm Gonna Miss Her
EXTD=
EXTT0=
EXTT1=
EXTT2=
EXTT3=
EXTT4=
EXTT5=
EXTT6=
EXTT7=
EXTT8=
EXTT9=
EXTT10=
EXTT11=
PLAYORDER=
